<svg width="744" height="788" viewBox="0 0 744 788" fill="none" xmlns="http://www.w3.org/2000/svg">
<rect width="744" height="758" rx="5" fill="#5429CC"/>
<path d="M504.617 483.301C484.731 523.535 443.738 549 398.858 549H338.717C293.09 549 251.553 522.689 232.057 481.436L5 1H377H743L504.617 483.301Z" fill="white" fill-opacity="0.5"/>
<path d="M332.433 338.673L344.562 350.369L399.576 355.134L415.604 274.562" stroke="#330043" stroke-width="1.46114"/>
<path d="M345.862 344.737L347.389 339.106L356.691 340.315L354.525 346.47L353.659 349.069L350.627 356L348.027 350.369L342.396 352.968L344.676 347.971L345.862 344.737Z" fill="#D81E5B" stroke="#D81E5B" stroke-width="1.46114"/>
<path d="M332 339.539L345.429 262L406.074 267.631L391.779 345.604L332 339.539Z" fill="#330043" stroke="#330043" stroke-width="0.487047"/>
<path d="M273.533 378.712C274.147 377.472 274.971 376.502 276.007 375.801C277.061 375.094 278.204 374.708 279.435 374.642C280.684 374.571 281.91 374.833 283.114 375.429C284.522 376.126 285.577 377.097 286.279 378.343C286.981 379.59 287.227 380.955 287.017 382.439L284.11 381.001C284.119 380.256 283.933 379.602 283.552 379.039C283.183 378.482 282.656 378.034 281.97 377.695C281.236 377.331 280.493 377.181 279.743 377.245C279.011 377.302 278.327 377.563 277.692 378.028C277.07 378.499 276.55 379.156 276.133 379.998C275.722 380.829 275.515 381.64 275.513 382.433C275.528 383.22 275.732 383.928 276.125 384.557C276.536 385.18 277.109 385.673 277.843 386.036C278.529 386.375 279.205 386.523 279.872 386.478C280.556 386.427 281.192 386.172 281.778 385.713L284.685 387.151C283.626 388.231 282.389 388.87 280.972 389.068C279.574 389.26 278.164 389.004 276.744 388.302C275.541 387.706 274.585 386.896 273.878 385.872C273.189 384.842 272.803 383.7 272.72 382.445C272.649 381.196 272.92 379.952 273.533 378.712Z" fill="white"/>
<path d="M293.873 395.902C292.87 395.516 292.052 394.95 291.418 394.203C290.789 393.444 290.399 392.568 290.248 391.575C290.11 390.586 290.246 389.56 290.655 388.494C291.064 387.428 291.657 386.577 292.434 385.941C293.224 385.309 294.11 384.93 295.093 384.804C296.082 384.666 297.077 384.789 298.08 385.175C299.083 385.56 299.905 386.135 300.547 386.899C301.193 387.651 301.591 388.523 301.742 389.516C301.906 390.514 301.783 391.546 301.373 392.611C300.964 393.677 300.358 394.523 299.556 395.15C298.767 395.782 297.872 396.165 296.871 396.298C295.888 396.424 294.889 396.292 293.873 395.902ZM294.754 393.608C295.231 393.791 295.719 393.849 296.219 393.782C296.737 393.708 297.21 393.487 297.639 393.119C298.068 392.752 298.41 392.236 298.666 391.571C299.046 390.581 299.074 389.721 298.75 388.992C298.443 388.256 297.913 387.743 297.161 387.454C296.409 387.165 295.672 387.192 294.951 387.533C294.248 387.867 293.706 388.529 293.325 389.52C292.945 390.51 292.895 391.369 293.177 392.095C293.477 392.815 294.002 393.319 294.754 393.608Z" fill="white"/>
<path d="M315.016 390.848C316.294 391.215 317.209 391.919 317.762 392.959C318.319 393.985 318.39 395.221 317.974 396.667L316.163 402.958L313.453 402.178L315.158 396.255C315.403 395.403 315.377 394.69 315.082 394.116C314.789 393.529 314.276 393.129 313.54 392.917C312.791 392.702 312.131 392.763 311.558 393.102C311.003 393.431 310.602 394.021 310.357 394.873L308.652 400.797L305.942 400.017L309.028 389.292L311.739 390.072L311.354 391.408C311.849 391.047 312.411 390.818 313.041 390.719C313.686 390.612 314.345 390.655 315.016 390.848Z" fill="white"/>
<path d="M331.38 394.718C332.21 394.881 332.912 395.211 333.485 395.706C334.061 396.189 334.457 396.821 334.673 397.602C334.905 398.373 334.924 399.252 334.73 400.241L333.47 406.665L330.703 406.122L331.889 400.073C332.06 399.204 331.973 398.496 331.629 397.949C331.287 397.389 330.74 397.036 329.989 396.888C329.225 396.739 328.572 396.857 328.031 397.243C327.506 397.619 327.158 398.242 326.987 399.112L325.801 405.161L323.033 404.618L325.902 389.99L328.67 390.533L327.681 395.574C328.13 395.169 328.677 394.893 329.322 394.746C329.969 394.585 330.655 394.576 331.38 394.718Z" fill="white"/>
<path d="M351.404 403.058C351.36 403.458 351.294 403.816 351.206 404.13L343.096 403.241C343.075 404.049 343.286 404.708 343.731 405.216C344.175 405.724 344.757 406.017 345.478 406.096C346.519 406.21 347.309 405.844 347.848 404.998L350.871 405.33C350.434 406.363 349.723 407.176 348.74 407.771C347.757 408.352 346.605 408.57 345.284 408.425C344.216 408.308 343.28 407.969 342.477 407.409C341.689 406.836 341.102 406.089 340.716 405.169C340.344 404.25 340.22 403.223 340.345 402.088C340.471 400.94 340.815 399.958 341.377 399.142C341.94 398.325 342.667 397.729 343.559 397.354C344.451 396.979 345.445 396.852 346.539 396.972C347.594 397.087 348.51 397.418 349.288 397.962C350.079 398.508 350.656 399.227 351.017 400.117C351.394 400.996 351.523 401.976 351.404 403.058ZM348.589 401.938C348.654 401.216 348.457 400.614 347.997 400.131C347.538 399.635 346.941 399.346 346.207 399.266C345.513 399.19 344.902 399.339 344.374 399.713C343.862 400.076 343.511 400.625 343.322 401.361L348.589 401.938Z" fill="white"/>
<path d="M356.667 403.665C356.698 402.51 356.96 401.51 357.453 400.663C357.946 399.803 358.615 399.15 359.46 398.702C360.306 398.241 361.265 398.025 362.339 398.054C363.722 398.091 364.854 398.47 365.734 399.193C366.629 399.902 367.214 400.885 367.489 402.141L364.448 402.06C364.3 401.572 364.035 401.189 363.653 400.91C363.285 400.618 362.819 400.465 362.255 400.449C361.449 400.428 360.804 400.706 360.318 401.284C359.833 401.849 359.576 402.668 359.547 403.742C359.519 404.803 359.731 405.635 360.185 406.238C360.64 406.828 361.27 407.133 362.075 407.155C363.216 407.185 363.975 406.695 364.351 405.684L367.392 405.766C367.051 406.966 366.414 407.909 365.482 408.596C364.55 409.283 363.4 409.608 362.031 409.572C360.957 409.543 360.01 409.283 359.19 408.79C358.371 408.285 357.738 407.596 357.291 406.724C356.844 405.839 356.637 404.819 356.667 403.665Z" fill="white"/>
<path d="M375.022 396.835C374.526 396.855 374.104 396.717 373.756 396.421C373.422 396.112 373.245 395.722 373.227 395.252C373.208 394.783 373.354 394.387 373.664 394.066C373.987 393.731 374.397 393.554 374.893 393.534C375.39 393.515 375.805 393.66 376.14 393.969C376.487 394.265 376.67 394.647 376.689 395.117C376.707 395.586 376.555 395.989 376.232 396.324C375.922 396.645 375.519 396.816 375.022 396.835ZM376.463 398.109L376.9 409.26L374.082 409.371L373.645 398.22L376.463 398.109Z" fill="white"/>
<path d="M396.541 396.019C397.899 395.845 399.045 396.124 399.979 396.857C400.924 397.575 401.493 398.68 401.684 400.172L402.518 406.665L399.721 407.024L398.936 400.911C398.825 400.045 398.52 399.414 398.022 399.017C397.523 398.608 396.894 398.451 396.134 398.549C395.375 398.647 394.799 398.957 394.406 399.482C394.025 399.991 393.89 400.679 394.001 401.544L394.786 407.658L391.989 408.018L391.204 401.904C391.092 401.038 390.788 400.407 390.29 400.01C389.791 399.601 389.161 399.445 388.402 399.542C387.63 399.641 387.047 399.953 386.654 400.478C386.273 400.987 386.137 401.674 386.249 402.54L387.034 408.654L384.237 409.013L382.815 397.945L385.612 397.585L385.784 398.924C386.084 398.412 386.496 397.986 387.022 397.648C387.56 397.308 388.169 397.094 388.848 397.007C389.714 396.896 390.511 396.983 391.238 397.269C391.963 397.541 392.556 397.993 393.016 398.625C393.294 397.939 393.748 397.359 394.377 396.886C395.02 396.411 395.741 396.122 396.541 396.019Z" fill="white"/>
<path d="M418.793 397.022C418.886 397.414 418.943 397.773 418.965 398.099L411.027 399.981C411.278 400.75 411.698 401.299 412.287 401.628C412.876 401.958 413.523 402.039 414.229 401.872C415.248 401.63 415.87 401.021 416.093 400.043L419.053 399.341C418.987 400.461 418.591 401.466 417.863 402.356C417.133 403.233 416.121 403.825 414.827 404.132C413.782 404.38 412.787 404.374 411.842 404.115C410.907 403.84 410.104 403.333 409.432 402.595C408.773 401.855 408.312 400.929 408.049 399.818C407.782 398.694 407.777 397.654 408.033 396.696C408.289 395.738 408.774 394.933 409.489 394.28C410.204 393.628 411.097 393.174 412.168 392.92C413.201 392.676 414.175 392.679 415.09 392.931C416.019 393.18 416.803 393.664 417.442 394.382C418.092 395.083 418.542 395.963 418.793 397.022ZM415.765 396.912C415.584 396.209 415.196 395.708 414.601 395.407C414.002 395.094 413.343 395.022 412.624 395.193C411.945 395.354 411.42 395.699 411.048 396.229C410.687 396.743 410.541 397.378 410.61 398.134L415.765 396.912Z" fill="white"/>
<path d="M428.722 388.233C429.985 387.818 431.138 387.885 432.18 388.433C433.218 388.968 433.972 389.951 434.441 391.38L436.484 397.6L433.804 398.479L431.881 392.623C431.604 391.781 431.182 391.206 430.615 390.898C430.043 390.577 429.393 390.535 428.666 390.774C427.926 391.017 427.414 391.44 427.131 392.042C426.857 392.626 426.858 393.34 427.135 394.182L429.058 400.038L426.379 400.918L422.897 390.316L425.576 389.436L426.01 390.756C426.216 390.18 426.552 389.674 427.017 389.238C427.49 388.786 428.058 388.451 428.722 388.233Z" fill="white"/>
<path d="M442.729 385.637L444.789 390.627C444.932 390.975 445.118 391.196 445.346 391.291C445.581 391.368 445.898 391.325 446.295 391.161L447.505 390.661L448.412 392.858L446.774 393.535C444.576 394.442 443.037 393.828 442.156 391.693L440.104 386.721L438.875 387.228L437.991 385.087L439.22 384.58L438.167 382.029L440.792 380.945L441.845 383.496L444.154 382.543L445.038 384.684L442.729 385.637Z" fill="white"/>
<path d="M459.209 388.018C458.249 388.5 457.28 388.725 456.301 388.691C455.316 388.644 454.405 388.343 453.57 387.786C452.746 387.223 452.077 386.432 451.565 385.412C451.052 384.392 450.822 383.38 450.874 382.377C450.938 381.368 451.255 380.458 451.824 379.646C452.386 378.822 453.148 378.169 454.108 377.686C455.068 377.204 456.046 376.983 457.043 377.023C458.034 377.051 458.948 377.343 459.784 377.9C460.632 378.451 461.312 379.236 461.824 380.256C462.337 381.276 462.555 382.294 462.479 383.309C462.415 384.318 462.096 385.238 461.521 386.068C460.952 386.879 460.181 387.53 459.209 388.018ZM458.106 385.822C458.562 385.593 458.934 385.271 459.221 384.856C459.514 384.423 459.67 383.924 459.687 383.36C459.703 382.795 459.552 382.195 459.232 381.559C458.756 380.611 458.139 380.012 457.382 379.761C456.631 379.492 455.895 379.539 455.175 379.9C454.455 380.262 453.979 380.825 453.746 381.588C453.52 382.333 453.644 383.18 454.121 384.128C454.597 385.076 455.199 385.69 455.926 385.971C456.659 386.233 457.386 386.184 458.106 385.822Z" fill="white"/>
<path d="M218.547 403.033C217.805 402.626 217.207 402.138 216.754 401.567C216.308 400.985 216.037 400.377 215.941 399.742C215.851 399.096 215.95 398.469 216.238 397.861L217.898 398.771C217.68 399.28 217.687 399.797 217.92 400.323C218.164 400.855 218.616 401.302 219.275 401.664C219.887 401.999 220.444 402.129 220.946 402.052C221.448 401.975 221.812 401.73 222.038 401.318C222.27 400.894 222.253 400.479 221.986 400.072C221.726 399.653 221.256 399.128 220.577 398.495C219.962 397.912 219.477 397.401 219.121 396.961C218.783 396.515 218.553 396.014 218.43 395.456C218.325 394.893 218.444 394.3 218.786 393.676C219.058 393.181 219.453 392.809 219.974 392.558C220.494 392.307 221.09 392.213 221.761 392.274C222.438 392.324 223.124 392.54 223.818 392.921C224.89 393.509 225.607 394.254 225.969 395.157C226.331 396.061 226.277 396.996 225.808 397.964L224.201 397.082C224.443 396.557 224.46 396.038 224.251 395.525C224.054 395.018 223.643 394.594 223.019 394.252C222.442 393.935 221.915 393.807 221.438 393.867C220.961 393.927 220.613 394.157 220.393 394.557C220.219 394.875 220.174 395.195 220.258 395.517C220.36 395.833 220.528 396.14 220.763 396.437C221.017 396.73 221.378 397.104 221.847 397.561C222.439 398.13 222.901 398.629 223.233 399.056C223.572 399.471 223.794 399.946 223.9 400.479C224.018 401.018 223.921 401.585 223.61 402.18C223.319 402.71 222.91 403.106 222.383 403.369C221.856 403.631 221.254 403.737 220.577 403.688C219.918 403.632 219.241 403.414 218.547 403.033Z" fill="white"/>
<path d="M240.224 407.187C240.072 407.501 239.892 407.824 239.686 408.157L231.747 404.307C231.333 405.315 231.293 406.243 231.628 407.092C231.98 407.935 232.592 408.567 233.462 408.989C234.175 409.335 234.846 409.459 235.475 409.361C236.123 409.257 236.678 408.974 237.141 408.512L238.917 409.374C238.188 410.199 237.278 410.721 236.188 410.938C235.103 411.143 233.969 410.959 232.785 410.385C231.842 409.928 231.099 409.306 230.555 408.52C230.023 407.739 229.733 406.86 229.685 405.881C229.643 404.891 229.871 403.882 230.37 402.855C230.868 401.828 231.51 401.027 232.296 400.453C233.081 399.879 233.943 399.566 234.879 399.512C235.833 399.453 236.794 399.657 237.76 400.126C238.703 400.583 239.437 401.193 239.963 401.956C240.488 402.718 240.769 403.555 240.804 404.468C240.857 405.374 240.663 406.28 240.224 407.187ZM238.687 406.016C238.992 405.388 239.114 404.783 239.053 404.201C238.997 403.607 238.784 403.078 238.412 402.614C238.058 402.144 237.591 401.768 237.011 401.487C236.177 401.082 235.335 401.002 234.485 401.247C233.648 401.497 232.958 402.073 232.416 402.974L238.687 406.016Z" fill="white"/>
<path d="M260.3 409.973C261.096 410.296 261.737 410.752 262.223 411.341C262.714 411.917 263.006 412.608 263.099 413.414C263.192 414.22 263.047 415.096 262.663 416.041L260.216 422.07L258.536 421.388L260.885 415.602C261.299 414.582 261.359 413.701 261.066 412.958C260.791 412.209 260.224 411.66 259.365 411.311C258.482 410.953 257.662 410.954 256.907 411.314C256.158 411.662 255.565 412.371 255.131 413.441L252.843 419.078L251.163 418.396L253.512 412.61C253.926 411.589 253.987 410.708 253.694 409.966C253.418 409.216 252.851 408.667 251.992 408.319C251.109 407.96 250.29 407.961 249.535 408.322C248.785 408.669 248.193 409.378 247.758 410.448L245.471 416.085L243.772 415.396L247.924 405.168L249.622 405.857L249.024 407.331C249.577 406.933 250.191 406.704 250.867 406.645C251.556 406.591 252.242 406.703 252.927 406.981C253.785 407.329 254.466 407.83 254.969 408.484C255.472 409.137 255.734 409.903 255.754 410.781C256.333 410.175 257.034 409.807 257.855 409.677C258.676 409.546 259.491 409.645 260.3 409.973Z" fill="white"/>
<path d="M271.839 416.56C272.381 416.074 273.054 415.743 273.86 415.57C274.683 415.387 275.548 415.445 276.454 415.742C277.385 416.047 278.154 416.547 278.761 417.24C279.38 417.938 279.772 418.766 279.938 419.725C280.109 420.672 280.018 421.681 279.666 422.752C279.319 423.812 278.793 424.685 278.087 425.372C277.381 426.059 276.57 426.507 275.653 426.715C274.75 426.927 273.832 426.881 272.901 426.575C272.008 426.283 271.281 425.825 270.722 425.204C270.18 424.574 269.828 423.9 269.668 423.183L267.401 430.093L265.66 429.522L270.732 414.056L272.473 414.627L271.839 416.56ZM277.886 422.169C278.146 421.377 278.212 420.636 278.086 419.945C277.959 419.253 277.672 418.664 277.224 418.178C276.788 417.696 276.245 417.348 275.594 417.135C274.956 416.925 274.311 416.89 273.657 417.029C273.021 417.16 272.438 417.471 271.91 417.962C271.398 418.444 271.015 419.074 270.76 419.853C270.5 420.644 270.432 421.392 270.554 422.096C270.693 422.792 270.979 423.387 271.41 423.882C271.858 424.368 272.401 424.716 273.039 424.925C273.69 425.138 274.334 425.18 274.97 425.049C275.623 424.91 276.206 424.6 276.717 424.117C277.233 423.622 277.623 422.973 277.886 422.169Z" fill="white"/>
<path d="M289.179 421.645C289.658 421.122 290.229 420.771 290.891 420.592C291.567 420.416 292.319 420.442 293.147 420.671L292.643 422.496L292.177 422.368C290.197 421.821 288.91 422.622 288.316 424.771L286.719 430.557L284.952 430.069L287.89 419.429L289.657 419.916L289.179 421.645Z" fill="white"/>
<path d="M307.486 429.551C307.408 429.891 307.307 430.247 307.181 430.617L298.579 428.654C298.402 429.729 298.573 430.643 299.09 431.394C299.623 432.136 300.361 432.614 301.303 432.829C302.076 433.006 302.758 432.976 303.349 432.739C303.956 432.492 304.434 432.091 304.781 431.537L306.705 431.976C306.181 432.944 305.412 433.657 304.399 434.115C303.388 434.559 302.241 434.635 300.958 434.342C299.937 434.108 299.073 433.67 298.366 433.027C297.672 432.386 297.191 431.594 296.924 430.652C296.66 429.696 296.656 428.662 296.91 427.549C297.164 426.436 297.609 425.512 298.245 424.776C298.882 424.039 299.65 423.54 300.55 423.277C301.467 423.004 302.449 422.987 303.496 423.226C304.517 423.459 305.37 423.888 306.054 424.513C306.738 425.137 307.199 425.89 307.439 426.771C307.695 427.642 307.71 428.569 307.486 429.551ZM305.725 428.756C305.881 428.075 305.863 427.458 305.673 426.905C305.485 426.339 305.158 425.872 304.691 425.503C304.24 425.125 303.701 424.864 303.072 424.721C302.169 424.514 301.331 424.626 300.558 425.056C299.798 425.488 299.255 426.205 298.93 427.205L305.725 428.756Z" fill="white"/>
<path d="M322.831 432.788C322.985 431.67 323.347 430.724 323.915 429.948C324.485 429.159 325.194 428.586 326.043 428.229C326.906 427.874 327.823 427.763 328.794 427.898C329.752 428.03 330.555 428.351 331.203 428.861C331.851 429.371 332.304 429.962 332.564 430.635L332.84 428.64L334.675 428.893L333.164 439.828L331.329 439.575L331.61 437.539C331.162 438.128 330.55 438.586 329.773 438.912C329.011 439.227 328.158 439.319 327.213 439.189C326.242 439.055 325.397 438.694 324.678 438.107C323.96 437.519 323.434 436.762 323.101 435.835C322.768 434.908 322.678 433.892 322.831 432.788ZM332.087 434.087C332.201 433.262 332.134 432.521 331.886 431.863C331.638 431.205 331.25 430.677 330.722 430.279C330.209 429.869 329.614 429.617 328.935 429.524C328.257 429.43 327.616 429.504 327.013 429.746C326.41 429.988 325.9 430.392 325.483 430.958C325.066 431.524 324.801 432.219 324.687 433.044C324.571 433.882 324.636 434.637 324.882 435.308C325.13 435.966 325.511 436.5 326.023 436.91C326.538 437.306 327.134 437.551 327.813 437.645C328.491 437.739 329.132 437.665 329.735 437.422C330.353 437.169 330.87 436.759 331.287 436.193C331.706 435.614 331.973 434.912 332.087 434.087Z" fill="white"/>
<path d="M345.9 441.273C344.87 441.189 343.952 440.88 343.146 440.343C342.354 439.807 341.752 439.092 341.339 438.196C340.941 437.288 340.787 436.266 340.879 435.128C340.97 434.003 341.291 433.032 341.842 432.215C342.407 431.384 343.13 430.776 344.01 430.389C344.891 429.988 345.854 429.83 346.898 429.915C347.942 429.999 348.867 430.309 349.672 430.846C350.479 431.369 351.089 432.079 351.501 432.974C351.927 433.871 352.095 434.888 352.003 436.026C351.911 437.164 351.575 438.147 350.997 438.976C350.432 439.793 349.703 440.401 348.808 440.8C347.914 441.199 346.944 441.357 345.9 441.273ZM346.03 439.666C346.686 439.719 347.314 439.615 347.914 439.354C348.515 439.092 349.014 438.668 349.412 438.08C349.823 437.493 350.064 436.758 350.135 435.875C350.207 434.992 350.093 434.228 349.795 433.584C349.497 432.94 349.078 432.448 348.54 432.109C348.002 431.755 347.406 431.552 346.75 431.499C346.081 431.445 345.452 431.549 344.865 431.812C344.293 432.062 343.814 432.482 343.43 433.07C343.046 433.659 342.818 434.395 342.746 435.279C342.674 436.175 342.774 436.945 343.045 437.586C343.33 438.229 343.735 438.727 344.259 439.079C344.784 439.418 345.374 439.613 346.03 439.666Z" fill="white"/>
<path d="M372.748 442.333C371.902 442.336 371.143 442.197 370.471 441.916C369.799 441.623 369.267 441.221 368.876 440.712C368.486 440.189 368.269 439.592 368.227 438.921L370.121 438.916C370.176 439.466 370.432 439.915 370.89 440.263C371.36 440.611 371.972 440.784 372.724 440.782C373.422 440.78 373.972 440.625 374.375 440.315C374.777 440.005 374.977 439.615 374.976 439.145C374.975 438.661 374.759 438.306 374.328 438.079C373.898 437.838 373.233 437.605 372.332 437.379C371.513 437.166 370.841 436.953 370.316 436.74C369.805 436.513 369.361 436.185 368.984 435.756C368.62 435.314 368.438 434.737 368.436 434.025C368.434 433.461 368.601 432.944 368.935 432.473C369.27 432.002 369.745 431.631 370.362 431.361C370.979 431.078 371.684 430.935 372.476 430.933C373.698 430.929 374.686 431.236 375.44 431.851C376.194 432.467 376.599 433.312 376.655 434.386L374.822 434.391C374.78 433.814 374.544 433.351 374.114 433.003C373.696 432.655 373.132 432.482 372.42 432.484C371.762 432.486 371.239 432.628 370.85 432.911C370.461 433.194 370.268 433.564 370.269 434.02C370.27 434.383 370.385 434.685 370.614 434.926C370.856 435.154 371.152 435.341 371.501 435.488C371.864 435.621 372.362 435.774 372.993 435.947C373.786 436.16 374.431 436.373 374.929 436.587C375.426 436.787 375.85 437.094 376.2 437.51C376.564 437.925 376.753 438.469 376.769 439.14C376.77 439.744 376.604 440.289 376.269 440.773C375.935 441.257 375.459 441.641 374.842 441.925C374.239 442.195 373.541 442.331 372.748 442.333Z" fill="white"/>
<path d="M393.734 435.493C393.752 435.842 393.751 436.212 393.732 436.603L384.921 437.069C385.045 438.151 385.459 438.983 386.162 439.565C386.878 440.132 387.719 440.39 388.684 440.339C389.476 440.297 390.123 440.082 390.627 439.692C391.144 439.288 391.493 438.772 391.675 438.144L393.646 438.04C393.407 439.115 392.863 440.011 392.013 440.728C391.163 441.432 390.081 441.819 388.766 441.888C387.72 441.943 386.769 441.758 385.913 441.333C385.07 440.907 384.391 440.277 383.877 439.444C383.361 438.597 383.073 437.603 383.013 436.463C382.953 435.324 383.128 434.312 383.538 433.43C383.949 432.548 384.551 431.857 385.345 431.358C386.152 430.844 387.092 430.559 388.164 430.503C389.21 430.447 390.148 430.626 390.977 431.04C391.805 431.453 392.456 432.051 392.927 432.833C393.412 433.601 393.68 434.488 393.734 435.493ZM391.822 435.211C391.786 434.514 391.6 433.925 391.265 433.445C390.93 432.952 390.487 432.592 389.937 432.366C389.4 432.125 388.81 432.022 388.166 432.056C387.241 432.105 386.465 432.442 385.839 433.066C385.227 433.691 384.901 434.528 384.862 435.579L391.822 435.211Z" fill="white"/>
<path d="M409.343 428.863L410.521 439.838L408.699 440.034L408.525 438.412C408.238 439.01 407.798 439.503 407.204 439.891C406.623 440.264 405.959 440.49 405.211 440.571C404.356 440.662 403.57 440.571 402.852 440.297C402.132 440.01 401.534 439.534 401.057 438.869C400.594 438.203 400.308 437.362 400.199 436.348L399.509 429.918L401.311 429.725L401.976 435.914C402.092 436.995 402.455 437.8 403.066 438.329C403.675 438.845 404.454 439.051 405.402 438.95C406.376 438.845 407.112 438.462 407.608 437.801C408.104 437.14 408.291 436.235 408.168 435.087L407.52 429.058L409.343 428.863Z" fill="white"/>
<path d="M426.555 431.851C426.336 430.744 426.368 429.732 426.652 428.813C426.933 427.881 427.416 427.108 428.102 426.493C428.802 425.875 429.632 425.471 430.594 425.281C431.542 425.093 432.406 425.134 433.185 425.405C433.964 425.675 434.586 426.086 435.051 426.637L434.66 424.661L436.478 424.301L438.621 435.13L436.803 435.49L436.404 433.474C436.174 434.177 435.745 434.809 435.117 435.372C434.499 435.918 433.723 436.284 432.788 436.469C431.826 436.66 430.91 436.595 430.039 436.274C429.167 435.954 428.423 435.41 427.806 434.642C427.188 433.875 426.771 432.944 426.555 431.851ZM435.728 430.055C435.566 429.239 435.261 428.56 434.811 428.019C434.362 427.478 433.823 427.106 433.194 426.902C432.575 426.682 431.93 426.639 431.258 426.772C430.586 426.905 430.005 427.184 429.514 427.61C429.024 428.035 428.674 428.584 428.464 429.255C428.255 429.926 428.231 430.67 428.393 431.487C428.557 432.317 428.865 433.009 429.317 433.563C429.766 434.104 430.3 434.484 430.919 434.704C431.535 434.91 432.178 434.947 432.85 434.814C433.522 434.681 434.103 434.402 434.594 433.976C435.095 433.535 435.451 432.978 435.66 432.307C435.867 431.623 435.889 430.872 435.728 430.055Z" fill="white"/>
<path d="M444.655 418.407L448.183 432.89L446.402 433.324L442.874 418.841L444.655 418.407Z" fill="white"/>
<path d="M453.201 425.925C452.885 424.828 452.83 423.81 453.035 422.87C453.237 421.918 453.659 421.105 454.304 420.43C454.961 419.752 455.793 419.269 456.8 418.979C458.104 418.605 459.266 418.613 460.287 419.004C461.32 419.392 462.134 420.108 462.728 421.153L460.831 421.698C460.464 421.105 459.963 420.697 459.326 420.475C458.702 420.249 458.003 420.247 457.229 420.47C456.222 420.759 455.509 421.342 455.09 422.217C454.667 423.079 454.637 424.142 455.001 425.407C455.368 426.685 455.962 427.583 456.782 428.102C457.602 428.621 458.515 428.736 459.522 428.446C460.296 428.224 460.889 427.857 461.302 427.348C461.714 426.838 461.921 426.219 461.921 425.493L463.819 424.947C463.846 426.113 463.529 427.147 462.866 428.051C462.2 428.941 461.228 429.57 459.95 429.937C458.944 430.226 457.982 430.258 457.064 430.033C456.16 429.804 455.37 429.339 454.694 428.639C454.017 427.94 453.52 427.035 453.201 425.925Z" fill="white"/>
<path d="M469.041 421.211C468.669 420.146 468.56 419.138 468.713 418.189C468.861 417.227 469.232 416.394 469.826 415.689C470.432 414.98 471.198 414.465 472.123 414.142C473.036 413.824 473.897 413.744 474.707 413.903C475.516 414.062 476.189 414.382 476.726 414.863L476.063 412.961L477.813 412.351L481.447 422.774L479.697 423.384L479.02 421.444C478.89 422.172 478.553 422.858 478.01 423.503C477.475 424.13 476.757 424.601 475.857 424.915C474.931 425.237 474.015 425.301 473.107 425.105C472.2 424.909 471.387 424.474 470.669 423.8C469.95 423.126 469.408 422.263 469.041 421.211ZM477.873 418.153C477.599 417.367 477.202 416.738 476.682 416.265C476.161 415.792 475.576 415.498 474.924 415.384C474.281 415.253 473.636 415.3 472.989 415.525C472.343 415.751 471.806 416.108 471.38 416.598C470.953 417.088 470.683 417.68 470.569 418.374C470.456 419.068 470.536 419.808 470.81 420.594C471.088 421.393 471.49 422.035 472.015 422.521C472.535 422.994 473.117 423.296 473.76 423.427C474.398 423.546 475.041 423.492 475.688 423.267C476.335 423.042 476.871 422.684 477.298 422.194C477.733 421.687 478.007 421.086 478.12 420.392C478.23 419.686 478.147 418.94 477.873 418.153Z" fill="white"/>
<path d="M489.6 407.492C490.841 406.978 492.002 406.941 493.085 407.38C494.162 407.806 494.993 408.727 495.579 410.141L498.065 416.154L496.39 416.847L494.003 411.076C493.582 410.059 493.007 409.388 492.278 409.065C491.543 408.73 490.735 408.744 489.854 409.108C488.961 409.478 488.363 410.052 488.06 410.831C487.77 411.605 487.845 412.526 488.287 413.593L490.619 419.233L488.925 419.934L484.707 409.733L486.4 409.033L487.001 410.485C487.12 409.825 487.407 409.234 487.859 408.713C488.325 408.186 488.905 407.779 489.6 407.492Z" fill="white"/>
<path d="M502.165 408.285C501.672 407.255 501.449 406.26 501.496 405.3C501.537 404.328 501.819 403.456 502.343 402.684C502.879 401.906 503.62 401.292 504.565 400.839C505.788 400.254 506.936 400.07 508.007 400.287C509.091 400.498 510.012 401.069 510.77 402.001L508.99 402.853C508.53 402.329 507.968 402.01 507.303 401.896C506.651 401.777 505.961 401.891 505.234 402.239C504.289 402.691 503.683 403.383 503.414 404.315C503.14 405.236 503.287 406.289 503.855 407.477C504.429 408.676 505.163 409.463 506.057 409.839C506.952 410.215 507.872 410.177 508.816 409.725C509.543 409.377 510.068 408.918 510.39 408.347C510.712 407.776 510.814 407.132 510.694 406.415L512.475 405.563C512.695 406.708 512.553 407.781 512.049 408.781C511.54 409.769 510.685 410.55 509.486 411.124C508.541 411.576 507.598 411.767 506.656 411.697C505.726 411.621 504.87 411.293 504.087 410.715C503.304 410.137 502.664 409.327 502.165 408.285Z" fill="white"/>
<path d="M526.27 395.509C526.438 395.815 526.597 396.149 526.748 396.51L519.001 400.733C519.581 401.656 520.313 402.228 521.198 402.449C522.089 402.652 522.959 402.522 523.808 402.059C524.503 401.68 524.994 401.206 525.281 400.637C525.572 400.05 525.665 399.433 525.557 398.788L527.291 397.843C527.539 398.916 527.435 399.959 526.978 400.973C526.515 401.975 525.706 402.791 524.55 403.421C523.63 403.922 522.693 404.166 521.736 404.152C520.792 404.131 519.908 403.856 519.084 403.327C518.254 402.785 517.565 402.013 517.019 401.011C516.472 400.009 516.194 399.021 516.183 398.048C516.173 397.075 516.418 396.192 516.919 395.399C517.425 394.588 518.149 393.925 519.093 393.411C520.012 392.909 520.935 392.666 521.861 392.681C522.787 392.697 523.632 392.955 524.395 393.457C525.163 393.94 525.788 394.624 526.27 395.509ZM524.425 396.079C524.09 395.466 523.669 395.015 523.16 394.727C522.644 394.426 522.09 394.293 521.496 394.326C520.908 394.341 520.33 394.502 519.764 394.811C518.951 395.255 518.397 395.893 518.102 396.727C517.819 397.554 517.886 398.45 518.305 399.415L524.425 396.079Z" fill="white"/>
<ellipse cx="376.5" cy="603" rx="61.5" ry="29" fill="white" fill-opacity="0.8"/>
<g filter="url(#filter0_d_98_2190)">
<path d="M484 604.739L474.317 594H276.938L268 604.739V616.244L270.234 623.915L318.648 729H434.097L481.766 623.915L484 616.244V604.739Z" fill="#313032" stroke="#313032" stroke-width="7.44828"/>
<g filter="url(#filter1_d_98_2190)">
<rect x="316" y="729" width="121" height="60" fill="#313032"/>
</g>
</g>
<rect x="285" y="613" width="105" height="8" rx="4" fill="#F5F5F5"/>
<rect x="407" y="613" width="14" height="8" rx="4" fill="#F5F5F5"/>
<path d="M217 103.299L221.607 96.6583L222.265 160.495L217 163.127V103.299Z" fill="#330043" fill-opacity="0.58" stroke="#330043" stroke-opacity="0.58" stroke-width="1.31621"/>
<path d="M220.949 159.178L221.607 160.495L217.658 163.785L222.265 164.443L228.846 165.759L234.111 167.734L240.034 170.366L245.299 172.34L250.563 174.973L255.828 176.947L261.093 178.263H266.358L270.307 177.605L273.597 176.947L276.23 175.631L278.862 173.657L280.178 169.05L278.204 171.024L276.888 171.682L274.913 172.999L272.281 174.315L270.307 174.973H267.016H262.409L257.803 173.657L253.196 171.682L249.905 170.366L245.299 167.734L240.034 165.101L233.453 162.469L228.188 161.153L224.897 160.495L220.949 159.178Z" fill="#330043" fill-opacity="0.58" stroke="#330043" stroke-opacity="0.58" stroke-width="1.31621"/>
<path d="M294.656 101.923L299.263 97V154.418H314L311.767 157.204H294.656V101.923Z" fill="#330043" fill-opacity="0.58"/>
<path d="M294.656 157.204V101.923L299.263 97V154.418M294.656 157.204L299.263 154.418M294.656 157.204H311.767L314 154.418H299.263" stroke="#330043" stroke-opacity="0.58" stroke-width="1.31621"/>
<path d="M338.092 99.2907L343 96.5L323.613 153.255L337.5 151.5L335 156.546H318.348L338.092 99.2907Z" fill="#330043" fill-opacity="0.58" stroke="#330043" stroke-opacity="0.58" stroke-width="1.31621"/>
<path d="M350 118L351.5 113L358.5 129H354L350 118Z" fill="#330043" fill-opacity="0.58" stroke="#330043" stroke-opacity="0.58" stroke-width="1.31621"/>
<path d="M360.467 140.093H357.5L362.441 156.546H376.92L378.236 153.255H365.074L360.467 140.093Z" fill="#330043" fill-opacity="0.58" stroke="#330043" stroke-opacity="0.58" stroke-width="1.31621"/>
<path d="M247.273 103L252.538 96.5V152.597H277.546H290L285 156.5H247.273V103Z" fill="#330043" fill-opacity="0.58"/>
<path d="M247.273 156.5V103L252.538 96.5V152.597M247.273 156.5L252.538 152.597M247.273 156.5H285L290 152.597H277.546H252.538" stroke="#330043" stroke-opacity="0.58" stroke-width="1.31621"/>
<path d="M287 112L290.05 106.53H266.358V112H287Z" fill="#330043" fill-opacity="0.58" stroke="#330043" stroke-opacity="0.58" stroke-width="1.31621"/>
<path d="M289.5 129.564H266.358V134H286L289.5 129.564Z" fill="#330043" fill-opacity="0.58" stroke="#330043" stroke-opacity="0.58" stroke-width="1.31621"/>
<path d="M359.5 140.5H337V143.436H359.5V140.5Z" fill="#330043" fill-opacity="0.58" stroke="#330043" stroke-opacity="0.58" stroke-width="1.31621"/>
<path d="M223.89 159.128L223.884 160.048L224.8 160.136L224.8 160.136L224.801 160.137L224.803 160.137L224.815 160.138L224.862 160.143C224.904 160.147 224.966 160.153 225.047 160.162C225.209 160.178 225.445 160.204 225.739 160.237C226.328 160.303 227.15 160.401 228.083 160.528C229.958 160.784 232.237 161.152 233.956 161.605C235.552 162.025 237.566 162.756 239.203 163.393C240.017 163.709 240.729 163.999 241.238 164.209C241.492 164.315 241.694 164.4 241.833 164.459C241.903 164.488 241.956 164.511 241.992 164.526L242.019 164.538L242.06 164.558L242.256 164.657C242.427 164.744 242.676 164.869 242.986 165.028C243.607 165.344 244.472 165.789 245.453 166.303C247.42 167.333 249.83 168.632 251.654 169.726C252.988 170.526 254.059 171.013 255.003 171.442C255.428 171.634 255.827 171.816 256.212 172.008C257.106 172.455 257.823 172.678 258.639 172.904C258.691 172.918 258.744 172.933 258.798 172.948C259.342 173.098 259.964 173.27 260.834 173.56C262.208 174.018 264.818 174.36 266.391 174.36C266.548 174.36 266.707 174.36 266.868 174.361C268.654 174.368 270.66 174.376 272.751 173.539C272.835 173.506 272.921 173.471 273.01 173.436C274.421 172.873 276.413 172.078 278.086 171.061C278.977 170.52 279.831 169.884 280.471 169.143C281.115 168.397 281.593 167.483 281.593 166.418V166.413V166.409V166.404V166.4V166.396V166.391V166.387V166.382V166.378V166.374V166.369V166.365V166.361V166.356V166.352V166.348V166.343V166.339V166.335V166.33V166.326V166.322V166.317V166.313V166.309V166.304V166.3V166.296V166.291V166.287V166.283V166.278V166.274V166.27V166.265V166.261V166.257V166.252V166.248V166.244V166.239V166.235V166.231V166.227V166.222V166.218V166.214V166.209V166.205V166.201V166.196V166.192V166.188V166.184V166.179V166.175V166.171V166.167V166.162V166.158V166.154V166.149V166.145V166.141V166.137V166.132V166.128V166.124V166.12V166.115V166.111V166.107V166.103V166.098V166.094V166.09V166.086V166.082V166.077V166.073V166.069V166.065V166.06V166.056V166.052V166.048V166.043V166.039V166.035V166.031V166.027V166.022V166.018V166.014V166.01V166.006V166.001V165.997V165.993V165.989V165.985V165.98V165.976V165.972V165.968V165.964V165.96V165.955V165.951V165.947V165.943V165.939V165.934V165.93V165.926V165.922V165.918V165.914V165.909V165.905V165.901V165.897V165.893V165.889V165.885V165.88V165.876V165.872V165.868V165.864V165.86V165.855V165.851V165.847V165.843V165.839V165.835V165.831V165.827V165.822V165.818V165.814V165.81V165.806V165.802V165.798V165.794V165.789V165.785V165.781V165.777V165.773V165.769V165.765V165.761V165.757V165.753V165.748V165.744V165.74V165.736V165.732V165.728V165.724V165.72V165.716V165.712V165.708V165.703V165.699V165.695V165.691V165.687V165.683V165.679V165.675V165.671V165.667V165.663V165.659V165.655V165.651V165.646V165.642V165.638V165.634V165.63V165.626V165.622V165.618V165.614V165.61V165.606V165.602V165.598V165.594V165.59V165.586V165.582V165.578V165.574V165.57V165.566V165.562V165.557V165.553V165.549V165.545V165.541V165.537V165.533V165.529V165.525V165.521V165.517V165.513V165.509V165.505V165.501V165.497V165.493V165.489V165.485V165.481V165.477V165.473V165.469V165.465V165.461V165.457V165.453V165.449V165.445V165.441V165.437V165.433V165.429V165.425V165.421V165.417V165.413V165.409V165.405V165.401V165.397V165.394V165.39V165.386V165.382V165.378V165.374V165.37V165.366V165.362V165.358V165.354V165.35V165.346V165.342V165.338V165.334V165.33V165.326V165.322V165.318V165.314V165.31V165.306V165.302V165.299V165.295V165.291V165.287V165.283V165.279V165.275V165.271V165.267V165.263V165.259V165.255V165.251V165.247V165.243V165.24V165.236V165.232V165.228V165.224V165.22V165.216V165.212V165.208V165.204V165.2V165.196V165.193V165.189V165.185V165.181V165.177V165.173V165.169V165.165V165.161V165.157V165.153V165.15V165.146V165.142V165.138V165.134V165.13V165.126V165.122V165.118V165.115V165.111V165.107V165.103V165.099V165.095V165.091V165.087V165.083V165.08V165.076V165.072V165.068V165.064V165.06V165.056V165.052V165.049V165.045V165.041V165.037V165.033V165.029V165.025V165.022V165.018V165.014V165.01V165.006V165.002V164.998V164.995V164.991V164.987V164.983V164.979V164.975V164.971V164.968V164.964V164.96V164.956V164.952V164.948V164.944V164.941V164.937V164.933V164.929V164.925V164.921V164.918V164.914V164.91V164.906V164.902V164.898V164.895V164.891V164.887V164.883V164.879V164.875V164.872V164.868V164.864V164.86V164.856V164.852V164.849V164.845V164.841V164.837V164.833V164.83V164.826V164.822V164.818V164.814V164.81V164.807V164.803V164.799V164.795V164.791V164.788V164.784V164.78V164.776V164.772V164.769V164.765V164.761V164.757V164.753V164.75V164.746V164.742V164.738V164.734V164.731V164.727V164.723V164.719V164.715V164.712V164.708V164.704V164.7V164.696V164.693V164.689V164.685V164.681V164.677V164.674V164.67V164.666V164.662V164.658V164.655V164.651V164.647V164.643V164.64V164.636V164.632V164.628V164.624V164.621V164.617V164.613V164.609V164.606V164.602V164.598V164.594V164.59V164.587V164.583V164.579V164.575V164.572V164.568V164.564V164.56V164.557V164.553V164.549V164.545V164.542V164.538V164.534V164.53V164.526V164.523V164.519V164.515V164.511V164.508V164.504V164.5V164.496V164.493V164.489V164.485V164.481V164.478V164.474V164.47V164.466V164.463V164.459V164.455V164.451V164.448V164.444V164.44V164.436V164.433V164.429V164.425V164.421V164.418V164.414V164.41V164.406V164.403V164.399V164.395V164.391V164.388V164.384V164.38V164.376V164.373C281.593 162.784 281.221 161.548 280.29 160.965C279.308 160.349 278.264 160.779 277.711 161.25C276.983 161.871 275.677 162.417 273.994 162.8C272.34 163.176 270.442 163.369 268.637 163.366C267.17 163.364 266 163.059 264.754 162.735C264.486 162.665 264.215 162.594 263.936 162.526C263.387 162.39 262.924 162.284 262.5 162.187C260.941 161.831 259.915 161.596 257.036 160.444C256.548 160.249 256.084 160.065 255.639 159.888C253.947 159.217 252.526 158.653 251.093 158C249.5 157.274 248.029 156.692 245.756 155.934C244.644 155.563 243.733 155.2 242.803 154.827L242.782 154.819C241.86 154.449 240.915 154.071 239.769 153.689C238.727 153.342 237.639 152.716 236.785 152.152C236.365 151.873 236.013 151.618 235.768 151.434C235.767 151.432 235.765 151.431 235.763 151.43V97.3163V96.3094H234.756H225.305H224.304L224.298 97.3097L223.89 159.128ZM313.773 97.3163V96.3094H312.766H301.712H300.705V97.3163V152.399V153.406H301.712H312.766H313.773V152.399V97.3163ZM253.913 151.741V152.748H254.919H290.529H291.536V151.741V143.476V142.47H290.529H265.786V129.628H288.483H289.49V128.621V120.357V119.35H288.483H265.786V106.588H290.317H291.324V105.581V97.3163V96.3094H290.317H254.919H253.913V97.3163V151.741ZM336.267 152.748H336.991L337.222 152.061L341.492 139.328H360.505L364.784 152.062L365.014 152.748H365.738H376.262H377.684L377.211 151.406L358.024 96.9816L357.787 96.3094H357.075H344.904H344.191L343.954 96.982L324.794 151.407L324.321 152.748H325.743H336.267ZM350.99 111.008L357.168 129.395H344.823L350.99 111.008ZM475.698 154.784L474.079 156.918L476.702 156.379L476.703 156.379L476.703 156.379L476.703 156.379L476.71 156.377L476.744 156.371C476.774 156.365 476.821 156.356 476.882 156.345C477.005 156.323 477.188 156.291 477.42 156.256C477.883 156.186 478.539 156.101 479.301 156.045C480.845 155.931 482.747 155.939 484.37 156.366C485.966 156.787 487.98 157.518 489.618 158.154C490.432 158.471 491.144 158.761 491.652 158.971C491.906 159.076 492.109 159.162 492.248 159.22C492.317 159.25 492.371 159.272 492.406 159.288L492.434 159.299L492.475 159.32L492.671 159.419C492.842 159.505 493.09 159.631 493.401 159.789C494.021 160.106 494.887 160.551 495.868 161.065C497.834 162.095 500.245 163.393 502.069 164.488C503.402 165.288 504.473 165.774 505.418 166.203C505.842 166.396 506.241 166.577 506.626 166.77C507.52 167.217 508.237 167.439 509.053 167.665L509.213 167.709C509.756 167.859 510.378 168.031 511.248 168.321C512.622 168.779 515.232 169.121 516.805 169.121C516.962 169.121 517.122 169.122 517.283 169.123C519.068 169.13 521.074 169.137 523.166 168.301C523.25 168.267 523.336 168.233 523.424 168.198C524.836 167.635 526.828 166.84 528.501 165.823C529.391 165.281 530.245 164.646 530.885 163.904C531.529 163.158 532.007 162.245 532.007 161.179V161.175V161.17V161.166V161.162V161.157V161.153V161.148V161.144V161.14V161.135V161.131V161.127V161.122V161.118V161.114V161.109V161.105V161.101V161.096V161.092V161.087V161.083V161.079V161.074V161.07V161.066V161.061V161.057V161.053V161.048V161.044V161.04V161.036V161.031V161.027V161.023V161.018V161.014V161.01V161.005V161.001V160.997V160.992V160.988V160.984V160.98V160.975V160.971V160.967V160.962V160.958V160.954V160.95V160.945V160.941V160.937V160.932V160.928V160.924V160.92V160.915V160.911V160.907V160.903V160.898V160.894V160.89V160.886V160.881V160.877V160.873V160.869V160.864V160.86V160.856V160.852V160.847V160.843V160.839V160.835V160.83V160.826V160.822V160.818V160.814V160.809V160.805V160.801V160.797V160.792V160.788V160.784V160.78V160.776V160.771V160.767V160.763V160.759V160.755V160.75V160.746V160.742V160.738V160.734V160.729V160.725V160.721V160.717V160.713V160.709V160.704V160.7V160.696V160.692V160.688V160.684V160.679V160.675V160.671V160.667V160.663V160.659V160.654V160.65V160.646V160.642V160.638V160.634V160.63V160.625V160.621V160.617V160.613V160.609V160.605V160.601V160.596V160.592V160.588V160.584V160.58V160.576V160.572V160.568V160.563V160.559V160.555V160.551V160.547V160.543V160.539V160.535V160.531V160.526V160.522V160.518V160.514V160.51V160.506V160.502V160.498V160.494V160.49V160.485V160.481V160.477V160.473V160.469V160.465V160.461V160.457V160.453V160.449V160.445V160.441V160.437V160.432V160.428V160.424V160.42V160.416V160.412V160.408V160.404V160.4V160.396V160.392V160.388V160.384V160.38V160.376V160.372V160.368V160.364V160.359V160.355V160.351V160.347V160.343V160.339V160.335V160.331V160.327V160.323V160.319V160.315V160.311V160.307V160.303V160.299V160.295V160.291V160.287V160.283V160.279V160.275V160.271V160.267V160.263V160.259V160.255V160.251V160.247V160.243V160.239V160.235V160.231V160.227V160.223V160.219V160.215V160.211V160.207V160.203V160.199V160.195V160.191V160.187V160.183V160.179V160.175V160.171V160.167V160.163V160.159V160.155V160.151V160.147V160.143V160.139V160.135V160.131V160.127V160.123V160.119V160.115V160.112V160.108V160.104V160.1V160.096V160.092V160.088V160.084V160.08V160.076V160.072V160.068V160.064V160.06V160.056V160.052V160.048V160.044V160.04V160.037V160.033V160.029V160.025V160.021V160.017V160.013V160.009V160.005V160.001V159.997V159.993V159.989V159.985V159.982V159.978V159.974V159.97V159.966V159.962V159.958V159.954V159.95V159.946V159.942V159.939V159.935V159.931V159.927V159.923V159.919V159.915V159.911V159.907V159.903V159.9V159.896V159.892V159.888V159.884V159.88V159.876V159.872V159.868V159.865V159.861V159.857V159.853V159.849V159.845V159.841V159.837V159.833V159.83V159.826V159.822V159.818V159.814V159.81V159.806V159.802V159.799V159.795V159.791V159.787V159.783V159.779V159.775V159.772V159.768V159.764V159.76V159.756V159.752V159.748V159.745V159.741V159.737V159.733V159.729V159.725V159.721V159.718V159.714V159.71V159.706V159.702V159.698V159.695V159.691V159.687V159.683V159.679V159.675V159.672V159.668V159.664V159.66V159.656V159.652V159.649V159.645V159.641V159.637V159.633V159.629V159.626V159.622V159.618V159.614V159.61V159.606V159.603V159.599V159.595V159.591V159.587V159.583V159.58V159.576V159.572V159.568V159.564V159.561V159.557V159.553V159.549V159.545V159.542V159.538V159.534V159.53V159.526V159.523V159.519V159.515V159.511V159.507V159.504V159.5V159.496V159.492V159.488V159.485V159.481V159.477V159.473V159.469V159.466V159.462V159.458V159.454V159.45V159.447V159.443V159.439V159.435V159.431V159.428V159.424V159.42V159.416V159.413V159.409V159.405V159.401V159.397V159.394V159.39V159.386V159.382V159.379V159.375V159.371V159.367V159.363V159.36V159.356V159.352V159.348V159.345V159.341V159.337V159.333V159.329V159.326V159.322V159.318V159.314V159.311V159.307V159.303V159.299V159.296V159.292V159.288V159.284V159.281V159.277V159.273V159.269V159.266V159.262V159.258V159.254V159.25V159.247V159.243V159.239V159.235V159.232V159.228V159.224V159.22V159.217V159.213V159.209V159.205V159.202V159.198V159.194V159.19V159.187V159.183V159.179V159.175V159.172V159.168V159.164V159.16V159.157V159.153V159.149V159.146V159.142V159.138V159.134C532.007 157.546 531.635 156.31 530.705 155.726C529.722 155.111 528.679 155.541 528.126 156.012L528.779 156.778L528.126 156.012C527.397 156.633 526.092 157.178 524.408 157.561C522.755 157.937 520.856 158.13 519.052 158.127C517.585 158.125 516.414 157.821 515.168 157.496C514.901 157.427 514.629 157.356 514.351 157.287C513.801 157.152 513.338 157.046 512.915 156.949C511.355 156.592 510.33 156.358 507.451 155.206C506.963 155.011 506.499 154.827 506.054 154.65C504.361 153.978 502.941 153.415 501.508 152.762C499.914 152.035 498.444 151.454 496.17 150.696C495.703 150.54 495.272 150.386 494.86 150.231L495.034 149.982L507.532 132.079L507.534 132.076L524.032 108.579L525.022 107.169L523.308 106.998L513.308 105.998L512.747 105.942L512.406 106.391L475.698 154.784Z" fill="#FFA219" stroke="#FFA219" stroke-width="2.01381"/>
<path d="M474.5 155L472 156.974L469 159.5L473.607 160.265L480.188 161.581L485.453 163.555L491.376 166.188L496.64 168.162L501.905 170.795L507.17 172.769L512.435 174.085H517.7L521.649 173.427L524.939 172.769L527.571 171.453L530.204 169.478L531.52 164.872L529.5 166.5L528.23 167.504L526.255 168.82L524 170L521.649 170.5L518.358 170.795L513.5 170.5L509.144 169.478L504.538 167.504L501.5 166L497 163.555L491.376 160.5L485.453 158.25L479.53 156.974L476.239 156.316L474.5 155Z" fill="#330043" fill-opacity="0.58" stroke="#330043" stroke-opacity="0.58" stroke-width="1.31621"/>
<path d="M420.061 97V95.9931H419.054H408H406.993V97V152.083V153.09H408H419.054H420.061V152.083V97Z" fill="#FFA219" stroke="#FFA219" stroke-width="2.01381"/>
<path d="M456.061 97.0001V95.9932H455.054H444H442.993V97.0001V152.083V153.09H444H455.054H456.061V152.083V97.0001Z" fill="#FFA219" stroke="#FFA219" stroke-width="2.01381"/>
<path d="M429 95.9931H427.993V97V108V109.007H429H470H471.007V108V97V95.9931H470H429Z" fill="#FFA219" stroke="#FFA219" stroke-width="2.01381"/>
<path d="M480 97.9931H478.993V99V105V106.007H480H525H526.007V105V99V97.9931H525H480Z" fill="#FFA219" stroke="#FFA219" stroke-width="2.01381"/>
<path d="M401 101.923L405.607 96V154.418H420.5L418.111 157.204H401V101.923Z" fill="#330043" fill-opacity="0.58"/>
<path d="M401 157.204V101.923L405.607 96V154.418M401 157.204L405.607 154.418M401 157.204H418.111L420.5 154.418H405.607" stroke="#330043" stroke-opacity="0.58" stroke-width="1.31621"/>
<path d="M437 110.5H441.607V154.418H456.5L454.111 157.204H437V110.5Z" fill="#330043" fill-opacity="0.58"/>
<path d="M437 157.204V110.5H441.607V154.418M437 157.204L441.607 154.418M437 157.204H454.111L456.5 154.418H441.607" stroke="#330043" stroke-opacity="0.58" stroke-width="1.31621"/>
<path d="M506.5 108H509.607L474.5 154L467 159.5L506.5 108Z" fill="#330043" fill-opacity="0.58" stroke="#330043" stroke-opacity="0.58" stroke-width="1.31621"/>
<path d="M424 99.5L427 96V110H441L440 113H424V99.5Z" fill="#330043" fill-opacity="0.58"/>
<path d="M424 113V99.5L427 96V110M424 113L427 110M424 113H440L441 110H427" stroke="#330043" stroke-opacity="0.58" stroke-width="1.31621"/>
<path d="M476 100.5L478 98V107.706H509.5L507.5 110H476V100.5Z" fill="#330043" fill-opacity="0.58"/>
<path d="M476 110V100.5L478 98V107.706M476 110L478 107.706M476 110H507.5L509.5 107.706H478" stroke="#330043" stroke-opacity="0.58" stroke-width="1.31621"/>
<path d="M457.5 110V114H468.5L471.5 110H457.5Z" fill="#330043" fill-opacity="0.58" stroke="#330043" stroke-opacity="0.58" stroke-width="1.31621"/>
<path d="M283.904 214.458L284.857 221.265L293.997 219.986L294.601 224.304L285.461 225.583L286.468 232.778L296.775 231.336L297.395 235.77L281.643 237.974L277.838 210.786L293.591 208.582L294.211 213.016L283.904 214.458Z" fill="#D81E5B"/>
<path d="M328.637 205.036L331.324 232.317L325.852 232.856L324.105 215.112L318.543 233.576L314.4 233.984L305.305 216.963L307.052 234.708L301.58 235.247L298.894 207.965L305.108 207.353L315.783 226.784L322.462 205.644L328.637 205.036Z" fill="#D81E5B"/>
<path d="M350.403 227.181L359.429 226.817L359.604 231.173L345.084 231.758L343.981 204.366L349.475 204.145L350.403 227.181Z" fill="#D81E5B"/>
<path d="M368.996 208.105L369.063 214.978L378.292 214.888L378.335 219.247L369.105 219.337L369.176 226.603L379.584 226.501L379.627 230.978L363.722 231.133L363.454 203.682L379.359 203.527L379.403 208.004L368.996 208.105Z" fill="#D81E5B"/>
<path d="M403.21 204.098L403.108 208.535L395.804 208.366L395.272 231.335L389.775 231.208L390.308 208.238L383.004 208.069L383.107 203.632L403.21 204.098Z" fill="#D81E5B"/>
<path d="M419.781 232.552L414.375 221.531L411.788 221.377L411.156 232.041L405.667 231.716L407.288 204.351L417.56 204.959C419.677 205.084 421.458 205.57 422.903 206.416C424.349 207.236 425.4 208.308 426.056 209.632C426.74 210.932 427.036 212.366 426.943 213.934C426.836 215.738 426.216 217.34 425.084 218.742C423.954 220.118 422.34 221.019 420.242 221.445L426.133 232.928L419.781 232.552ZM412.031 217.261L416.618 217.532C418.108 217.621 419.24 217.334 420.014 216.671C420.789 215.983 421.214 214.998 421.29 213.717C421.364 212.463 421.056 211.474 420.364 210.751C419.674 210.002 418.584 209.583 417.094 209.495L412.507 209.224L412.031 217.261Z" fill="#D81E5B"/>
<path d="M446.944 229.754L436.079 228.677L433.766 233.697L428.02 233.127L440.538 206.781L446.908 207.412L454.011 235.703L448.226 235.13L446.944 229.754ZM445.892 225.229L443.076 213.426L437.997 224.447L445.892 225.229Z" fill="#D81E5B"/>
<path d="M465.356 237.68C463.463 237.419 461.796 236.858 460.355 235.998C458.94 235.142 457.876 234.044 457.163 232.703C456.449 231.362 456.194 229.86 456.397 228.197L462.233 229.002C462.157 230.128 462.424 231.064 463.035 231.809C463.671 232.558 464.612 233.018 465.857 233.19C467.128 233.365 468.168 233.205 468.977 232.709C469.789 232.186 470.263 231.433 470.399 230.447C470.51 229.643 470.355 228.947 469.934 228.361C469.512 227.774 468.945 227.286 468.233 226.897C467.549 226.485 466.584 226.008 465.338 225.466C463.646 224.704 462.276 224 461.229 223.353C460.211 222.684 459.37 221.788 458.706 220.665C458.071 219.52 457.871 218.092 458.108 216.38C458.33 214.772 458.925 213.427 459.894 212.345C460.863 211.263 462.116 210.511 463.655 210.089C465.197 209.641 466.901 209.546 468.769 209.804C471.57 210.19 473.745 211.191 475.293 212.806C476.87 214.398 477.581 216.426 477.426 218.889L471.435 218.062C471.512 217.121 471.216 216.3 470.546 215.6C469.905 214.877 468.976 214.431 467.757 214.263C466.693 214.116 465.8 214.27 465.076 214.725C464.378 215.184 463.958 215.932 463.815 216.97C463.715 217.696 463.864 218.338 464.263 218.895C464.691 219.43 465.234 219.901 465.891 220.309C466.578 220.695 467.543 221.172 468.786 221.74C470.478 222.502 471.846 223.22 472.89 223.892C473.933 224.565 474.786 225.476 475.446 226.624C476.107 227.773 476.321 229.19 476.089 230.876C475.888 232.328 475.326 233.625 474.402 234.766C473.478 235.907 472.237 236.754 470.681 237.305C469.128 237.831 467.353 237.956 465.356 237.68Z" fill="#D81E5B"/>
<defs>
<filter id="filter0_d_98_2190" x="260.276" y="590.276" width="231.448" height="212.724" filterUnits="userSpaceOnUse" color-interpolation-filters="sRGB">
<feFlood flood-opacity="0" result="BackgroundImageFix"/>
<feColorMatrix in="SourceAlpha" type="matrix" values="0 0 0 0 0 0 0 0 0 0 0 0 0 0 0 0 0 0 127 0" result="hardAlpha"/>
<feOffset dy="10"/>
<feGaussianBlur stdDeviation="2"/>
<feComposite in2="hardAlpha" operator="out"/>
<feColorMatrix type="matrix" values="0 0 0 0 0 0 0 0 0 0 0 0 0 0 0 0 0 0 0.25 0"/>
<feBlend mode="normal" in2="BackgroundImageFix" result="effect1_dropShadow_98_2190"/>
<feBlend mode="normal" in="SourceGraphic" in2="effect1_dropShadow_98_2190" result="shape"/>
</filter>
<filter id="filter1_d_98_2190" x="312" y="729" width="129" height="74" filterUnits="userSpaceOnUse" color-interpolation-filters="sRGB">
<feFlood flood-opacity="0" result="BackgroundImageFix"/>
<feColorMatrix in="SourceAlpha" type="matrix" values="0 0 0 0 0 0 0 0 0 0 0 0 0 0 0 0 0 0 127 0" result="hardAlpha"/>
<feOffset dy="10"/>
<feGaussianBlur stdDeviation="2"/>
<feComposite in2="hardAlpha" operator="out"/>
<feColorMatrix type="matrix" values="0 0 0 0 0 0 0 0 0 0 0 0 0 0 0 0 0 0 0.25 0"/>
<feBlend mode="normal" in2="BackgroundImageFix" result="effect1_dropShadow_98_2190"/>
<feBlend mode="normal" in="SourceGraphic" in2="effect1_dropShadow_98_2190" result="shape"/>
</filter>
</defs>
</svg>
