<svg width="123" height="46" viewBox="0 0 123 46" fill="none" xmlns="http://www.w3.org/2000/svg">
<path d="M0.981567 3.80925L2.75438 1.25366L3.00764 25.8198L0.981567 26.8328V3.80925Z" fill="#330043" fill-opacity="0.58" stroke="#330043" stroke-opacity="0.58" stroke-width="0.506518"/>
<path d="M2.50104 25.3132L2.7543 25.8198L1.23474 27.086L3.00755 27.3393L5.54015 27.8458L7.56622 28.6056L9.84555 29.6186L11.8716 30.3784L13.8977 31.3914L15.9238 32.1512L17.9498 32.6577H19.9759L21.4955 32.4045L22.7618 32.1512L23.7748 31.6447L24.7878 30.8849L25.2944 29.1121L24.5346 29.8719L24.0281 30.1252L23.2683 30.6317L22.2552 31.1382L21.4955 31.3914H20.2292H18.4564L16.6835 30.8849L14.9107 30.1252L13.6444 29.6186L11.8716 28.6056L9.84555 27.5926L7.31296 26.5795L5.28689 26.073L4.02059 25.8198L2.50104 25.3132Z" fill="#330043" fill-opacity="0.58" stroke="#330043" stroke-opacity="0.58" stroke-width="0.506518"/>
<path d="M30.8662 3.27956L32.639 1.38501V23.4813H38.3101L37.4509 24.5533H30.8662V3.27956Z" fill="#330043" fill-opacity="0.58"/>
<path d="M30.8662 24.5533V3.27956L32.639 1.38501V23.4813M30.8662 24.5533L32.639 23.4813M30.8662 24.5533H37.4509L38.3101 23.4813H32.639" stroke="#330043" stroke-opacity="0.58" stroke-width="0.506518"/>
<path d="M47.5812 2.26655L49.4701 1.19263L42.0095 23.0338L47.3535 22.3583L46.3914 24.3001H39.9834L47.5812 2.26655Z" fill="#330043" fill-opacity="0.58" stroke="#330043" stroke-opacity="0.58" stroke-width="0.506518"/>
<path d="M52.1638 9.46639L52.7411 7.54224L55.4349 13.6995H53.7031L52.1638 9.46639Z" fill="#330043" fill-opacity="0.58" stroke="#330043" stroke-opacity="0.58" stroke-width="0.506518"/>
<path d="M56.192 17.9685H55.0502L56.9518 24.3H62.5235L63.03 23.0337H57.9648L56.192 17.9685Z" fill="#330043" fill-opacity="0.58" stroke="#330043" stroke-opacity="0.58" stroke-width="0.506518"/>
<path d="M12.6315 3.69402L14.6575 1.19263V22.7805H24.2814H29.0742L27.15 24.2824H12.6315V3.69402Z" fill="#330043" fill-opacity="0.58"/>
<path d="M12.6315 24.2824V3.69402L14.6575 1.19263V22.7805M12.6315 24.2824L14.6575 22.7805M12.6315 24.2824H27.15L29.0742 22.7805H24.2814H14.6575" stroke="#330043" stroke-opacity="0.58" stroke-width="0.506518"/>
<path d="M27.9196 7.15733L29.0933 5.05225H19.976V7.15733H27.9196Z" fill="#330043" fill-opacity="0.58" stroke="#330043" stroke-opacity="0.58" stroke-width="0.506518"/>
<path d="M28.8817 13.9163H19.976V15.6235H27.5348L28.8817 13.9163Z" fill="#330043" fill-opacity="0.58" stroke="#330043" stroke-opacity="0.58" stroke-width="0.506518"/>
<path d="M55.8198 18.125H47.1611V19.255H55.8198V18.125Z" fill="#330043" fill-opacity="0.58" stroke="#330043" stroke-opacity="0.58" stroke-width="0.506518"/>
<path d="M3.63315 25.2934L3.63082 25.6475L3.98319 25.6817L3.98321 25.6817L3.98345 25.6817L3.9845 25.6818L3.98897 25.6822L4.00711 25.684L4.07831 25.6913C4.14054 25.6978 4.23128 25.7075 4.34456 25.7202C4.57124 25.7458 4.8877 25.7835 5.24644 25.8325C5.96836 25.9309 6.84505 26.0724 7.50657 26.2467C8.12075 26.4084 8.89578 26.6897 9.52612 26.9348C9.83935 27.0566 10.1133 27.1681 10.3089 27.2491C10.4066 27.2895 10.4847 27.3224 10.5381 27.345L10.5993 27.371L10.6097 27.3754L10.6255 27.3834L10.7009 27.4214C10.7667 27.4546 10.8625 27.5031 10.9818 27.5639C11.2206 27.6857 11.5538 27.8569 11.9312 28.0547C12.6879 28.4512 13.6157 28.9509 14.3175 29.372C14.8308 29.68 15.243 29.8672 15.6063 30.0322C15.7697 30.1064 15.9231 30.1761 16.0715 30.2503C16.4155 30.4223 16.6914 30.5079 17.0053 30.5949C17.0255 30.6005 17.046 30.6061 17.0668 30.6119C17.2759 30.6696 17.5152 30.7357 17.8502 30.8473C18.3788 31.0235 19.3832 31.1552 19.9886 31.1552C20.0491 31.1552 20.1104 31.1554 20.1724 31.1557C20.8595 31.1584 21.6315 31.1614 22.4364 30.8395C22.4686 30.8266 22.5018 30.8133 22.5358 30.7997C23.079 30.583 23.8456 30.2772 24.4894 29.8858C24.8322 29.6774 25.1606 29.4329 25.407 29.1476C25.6549 28.8605 25.8387 28.509 25.8387 28.0988V28.0971V28.0954V28.0937V28.092V28.0904V28.0887V28.087V28.0853V28.0836V28.082V28.0803V28.0786V28.0769V28.0752V28.0736V28.0719V28.0702V28.0685V28.0669V28.0652V28.0635V28.0619V28.0602V28.0585V28.0569V28.0552V28.0535V28.0519V28.0502V28.0485V28.0469V28.0452V28.0435V28.0419V28.0402V28.0385V28.0369V28.0352V28.0336V28.0319V28.0303V28.0286V28.027V28.0253V28.0236V28.022V28.0203V28.0187V28.017V28.0154V28.0137V28.0121V28.0104V28.0088V28.0072V28.0055V28.0039V28.0022V28.0006V27.9989V27.9973V27.9957V27.994V27.9924V27.9907V27.9891V27.9875V27.9858V27.9842V27.9825V27.9809V27.9793V27.9776V27.976V27.9744V27.9728V27.9711V27.9695V27.9679V27.9662V27.9646V27.963V27.9614V27.9597V27.9581V27.9565V27.9549V27.9532V27.9516V27.95V27.9484V27.9468V27.9451V27.9435V27.9419V27.9403V27.9387V27.9371V27.9354V27.9338V27.9322V27.9306V27.929V27.9274V27.9258V27.9242V27.9225V27.9209V27.9193V27.9177V27.9161V27.9145V27.9129V27.9113V27.9097V27.9081V27.9065V27.9049V27.9033V27.9017V27.9001V27.8985V27.8969V27.8953V27.8937V27.8921V27.8905V27.8889V27.8873V27.8857V27.8841V27.8825V27.8809V27.8793V27.8777V27.8761V27.8746V27.873V27.8714V27.8698V27.8682V27.8666V27.865V27.8634V27.8619V27.8603V27.8587V27.8571V27.8555V27.8539V27.8524V27.8508V27.8492V27.8476V27.846V27.8445V27.8429V27.8413V27.8397V27.8382V27.8366V27.835V27.8334V27.8319V27.8303V27.8287V27.8271V27.8256V27.824V27.8224V27.8209V27.8193V27.8177V27.8161V27.8146V27.813V27.8114V27.8099V27.8083V27.8068V27.8052V27.8036V27.8021V27.8005V27.7989V27.7974V27.7958V27.7943V27.7927V27.7911V27.7896V27.788V27.7865V27.7849V27.7834V27.7818V27.7802V27.7787V27.7771V27.7756V27.774V27.7725V27.7709V27.7694V27.7678V27.7663V27.7647V27.7632V27.7616V27.7601V27.7585V27.757V27.7554V27.7539V27.7524V27.7508V27.7493V27.7477V27.7462V27.7446V27.7431V27.7416V27.74V27.7385V27.7369V27.7354V27.7339V27.7323V27.7308V27.7292V27.7277V27.7262V27.7246V27.7231V27.7216V27.72V27.7185V27.717V27.7154V27.7139V27.7124V27.7108V27.7093V27.7078V27.7063V27.7047V27.7032V27.7017V27.7001V27.6986V27.6971V27.6956V27.694V27.6925V27.691V27.6895V27.6879V27.6864V27.6849V27.6834V27.6819V27.6803V27.6788V27.6773V27.6758V27.6743V27.6727V27.6712V27.6697V27.6682V27.6667V27.6651V27.6636V27.6621V27.6606V27.6591V27.6576V27.6561V27.6545V27.653V27.6515V27.65V27.6485V27.647V27.6455V27.644V27.6425V27.641V27.6394V27.6379V27.6364V27.6349V27.6334V27.6319V27.6304V27.6289V27.6274V27.6259V27.6244V27.6229V27.6214V27.6199V27.6184V27.6169V27.6154V27.6139V27.6124V27.6109V27.6094V27.6079V27.6064V27.6049V27.6034V27.6019V27.6004V27.5989V27.5974V27.5959V27.5944V27.5929V27.5914V27.5899V27.5884V27.5869V27.5854V27.5839V27.5824V27.5809V27.5795V27.578V27.5765V27.575V27.5735V27.572V27.5705V27.569V27.5675V27.566V27.5646V27.5631V27.5616V27.5601V27.5586V27.5571V27.5556V27.5541V27.5527V27.5512V27.5497V27.5482V27.5467V27.5452V27.5438V27.5423V27.5408V27.5393V27.5378V27.5364V27.5349V27.5334V27.5319V27.5304V27.529V27.5275V27.526V27.5245V27.523V27.5216V27.5201V27.5186V27.5171V27.5157V27.5142V27.5127V27.5112V27.5098V27.5083V27.5068V27.5053V27.5039V27.5024V27.5009V27.4995V27.498V27.4965V27.495V27.4936V27.4921V27.4906V27.4892V27.4877V27.4862V27.4847V27.4833V27.4818V27.4803V27.4789V27.4774V27.4759V27.4745V27.473V27.4715V27.4701V27.4686V27.4671V27.4657V27.4642V27.4628V27.4613V27.4598V27.4584V27.4569V27.4554V27.454V27.4525V27.451V27.4496V27.4481V27.4467V27.4452V27.4437V27.4423V27.4408V27.4394V27.4379V27.4364V27.435V27.4335V27.4321V27.4306V27.4292V27.4277V27.4262V27.4248V27.4233V27.4219V27.4204V27.419V27.4175V27.416V27.4146V27.4131V27.4117V27.4102V27.4088V27.4073V27.4059V27.4044V27.403V27.4015V27.4001V27.3986V27.3972V27.3957V27.3942V27.3928V27.3913V27.3899V27.3884V27.387V27.3855V27.3841V27.3826V27.3812V27.3797V27.3783V27.3769V27.3754V27.374V27.3725V27.3711V27.3696V27.3682V27.3667V27.3653V27.3638V27.3624V27.3609V27.3595V27.358V27.3566V27.3551V27.3537V27.3523V27.3508V27.3494V27.3479V27.3465V27.345V27.3436V27.3421V27.3407V27.3393V27.3378V27.3364V27.3349V27.3335V27.332V27.3306V27.3292V27.3277V27.3263V27.3248V27.3234V27.322V27.3205V27.3191V27.3176V27.3162V27.3148V27.3133V27.3119C25.8387 26.7005 25.6956 26.2248 25.3375 26.0004C24.9595 25.7635 24.5579 25.929 24.345 26.1103C24.0647 26.3492 23.5624 26.5591 22.9144 26.7065C22.2782 26.8512 21.5476 26.9255 20.8531 26.9244C20.2886 26.9235 19.8382 26.8063 19.3587 26.6815C19.2556 26.6547 19.1512 26.6276 19.0441 26.6011C18.8325 26.5489 18.6544 26.5082 18.4915 26.4709C17.8914 26.3336 17.4966 26.2433 16.3887 25.8002C16.201 25.7251 16.0225 25.6542 15.8512 25.5863C15.1998 25.3278 14.6532 25.1108 14.1016 24.8594C13.4884 24.5799 12.9226 24.3561 12.0476 24.0644C11.6197 23.9218 11.2694 23.7818 10.9112 23.6384L10.9032 23.6352C10.5482 23.493 10.1846 23.3474 9.7437 23.2005C9.34267 23.0668 8.92397 22.8262 8.59552 22.6089C8.43367 22.5018 8.2985 22.4036 8.20423 22.3325C8.20356 22.332 8.20289 22.3315 8.20222 22.331V1.50659V1.11911H7.81474H4.17743H3.79249L3.78995 1.50404L3.63315 25.2934ZM38.2227 1.50659V1.11911H37.8352H33.5812H33.1937V1.50659V22.7041V23.0916H33.5812H37.8352H38.2227V22.7041V1.50659ZM15.1866 22.4509V22.8384H15.5741H29.2779H29.6654V22.4509V19.2704V18.8829H29.2779H19.7557V13.9411H28.4904H28.8779V13.5536V10.3731V9.98566H28.4904H19.7557V5.07458H29.1961H29.5835V4.6871V1.50659V1.11911H29.1961H15.5741H15.1866V1.50659V22.4509ZM46.879 22.8384H47.1578L47.2464 22.5741L48.8898 17.6739H56.2066L57.8531 22.5743L57.9418 22.8384H58.2204H62.2702H62.8177L62.6357 22.322L55.252 1.37776L55.1608 1.11911H54.8865H50.2027H49.9283L49.8372 1.37792L42.4638 22.3222L42.282 22.8384H42.8293H46.879ZM52.5449 6.7757L54.9223 13.8513H50.1718L52.5449 6.7757ZM100.536 23.6219L99.9131 24.4433L100.923 24.2357L100.923 24.2356L100.923 24.2356L100.923 24.2356L100.926 24.235L100.939 24.2325C100.95 24.2303 100.968 24.2268 100.992 24.2226C101.039 24.214 101.11 24.2019 101.199 24.1884C101.377 24.1613 101.63 24.1288 101.923 24.1071C102.517 24.0631 103.249 24.0663 103.874 24.2308C104.488 24.3926 105.263 24.6738 105.893 24.9189C106.206 25.0407 106.48 25.1522 106.676 25.2332C106.774 25.2737 106.852 25.3065 106.905 25.3291L106.966 25.3551L106.977 25.3595L106.992 25.3675L107.068 25.4055C107.134 25.4387 107.229 25.4872 107.349 25.548C107.588 25.6698 107.921 25.841 108.298 26.0388C109.055 26.4353 109.983 26.935 110.685 27.3562C111.198 27.6641 111.61 27.8513 111.973 28.0164C112.137 28.0905 112.29 28.1602 112.438 28.2344C112.782 28.4064 113.058 28.492 113.372 28.579L113.434 28.596C113.643 28.6537 113.882 28.7198 114.217 28.8314C114.746 29.0076 115.75 29.1393 116.356 29.1393C116.416 29.1393 116.477 29.1395 116.539 29.1398C117.227 29.1425 117.999 29.1455 118.803 28.8236C118.836 28.8107 118.869 28.7975 118.903 28.7839C119.446 28.5672 120.213 28.2613 120.856 27.8699C121.199 27.6615 121.528 27.417 121.774 27.1317C122.022 26.8446 122.206 26.4931 122.206 26.0829V26.0812V26.0795V26.0778V26.0762V26.0745V26.0728V26.0711V26.0694V26.0678V26.0661V26.0644V26.0627V26.061V26.0594V26.0577V26.056V26.0543V26.0527V26.051V26.0493V26.0476V26.046V26.0443V26.0426V26.041V26.0393V26.0376V26.036V26.0343V26.0326V26.031V26.0293V26.0276V26.026V26.0243V26.0227V26.021V26.0193V26.0177V26.016V26.0144V26.0127V26.0111V26.0094V26.0078V26.0061V26.0045V26.0028V26.0012V25.9995V25.9979V25.9962V25.9946V25.9929V25.9913V25.9896V25.988V25.9863V25.9847V25.983V25.9814V25.9798V25.9781V25.9765V25.9748V25.9732V25.9716V25.9699V25.9683V25.9667V25.965V25.9634V25.9618V25.9601V25.9585V25.9569V25.9552V25.9536V25.952V25.9504V25.9487V25.9471V25.9455V25.9438V25.9422V25.9406V25.939V25.9374V25.9357V25.9341V25.9325V25.9309V25.9293V25.9276V25.926V25.9244V25.9228V25.9212V25.9195V25.9179V25.9163V25.9147V25.9131V25.9115V25.9099V25.9083V25.9067V25.905V25.9034V25.9018V25.9002V25.8986V25.897V25.8954V25.8938V25.8922V25.8906V25.889V25.8874V25.8858V25.8842V25.8826V25.881V25.8794V25.8778V25.8762V25.8746V25.873V25.8714V25.8698V25.8682V25.8666V25.865V25.8634V25.8619V25.8603V25.8587V25.8571V25.8555V25.8539V25.8523V25.8507V25.8491V25.8476V25.846V25.8444V25.8428V25.8412V25.8396V25.8381V25.8365V25.8349V25.8333V25.8317V25.8302V25.8286V25.827V25.8254V25.8238V25.8223V25.8207V25.8191V25.8175V25.816V25.8144V25.8128V25.8112V25.8097V25.8081V25.8065V25.805V25.8034V25.8018V25.8003V25.7987V25.7971V25.7956V25.794V25.7924V25.7909V25.7893V25.7877V25.7862V25.7846V25.7831V25.7815V25.7799V25.7784V25.7768V25.7753V25.7737V25.7721V25.7706V25.769V25.7675V25.7659V25.7644V25.7628V25.7613V25.7597V25.7582V25.7566V25.755V25.7535V25.7519V25.7504V25.7488V25.7473V25.7458V25.7442V25.7427V25.7411V25.7396V25.738V25.7365V25.7349V25.7334V25.7318V25.7303V25.7288V25.7272V25.7257V25.7241V25.7226V25.7211V25.7195V25.718V25.7164V25.7149V25.7134V25.7118V25.7103V25.7088V25.7072V25.7057V25.7042V25.7026V25.7011V25.6996V25.698V25.6965V25.695V25.6934V25.6919V25.6904V25.6888V25.6873V25.6858V25.6843V25.6827V25.6812V25.6797V25.6782V25.6766V25.6751V25.6736V25.6721V25.6705V25.669V25.6675V25.666V25.6644V25.6629V25.6614V25.6599V25.6584V25.6568V25.6553V25.6538V25.6523V25.6508V25.6493V25.6477V25.6462V25.6447V25.6432V25.6417V25.6402V25.6387V25.6371V25.6356V25.6341V25.6326V25.6311V25.6296V25.6281V25.6266V25.6251V25.6236V25.622V25.6205V25.619V25.6175V25.616V25.6145V25.613V25.6115V25.61V25.6085V25.607V25.6055V25.604V25.6025V25.601V25.5995V25.598V25.5965V25.595V25.5935V25.592V25.5905V25.589V25.5875V25.586V25.5845V25.583V25.5815V25.58V25.5785V25.577V25.5755V25.574V25.5725V25.571V25.5695V25.568V25.5665V25.5651V25.5636V25.5621V25.5606V25.5591V25.5576V25.5561V25.5546V25.5531V25.5516V25.5502V25.5487V25.5472V25.5457V25.5442V25.5427V25.5412V25.5397V25.5383V25.5368V25.5353V25.5338V25.5323V25.5308V25.5294V25.5279V25.5264V25.5249V25.5234V25.5219V25.5205V25.519V25.5175V25.516V25.5145V25.5131V25.5116V25.5101V25.5086V25.5072V25.5057V25.5042V25.5027V25.5013V25.4998V25.4983V25.4968V25.4953V25.4939V25.4924V25.4909V25.4895V25.488V25.4865V25.485V25.4836V25.4821V25.4806V25.4791V25.4777V25.4762V25.4747V25.4733V25.4718V25.4703V25.4689V25.4674V25.4659V25.4645V25.463V25.4615V25.4601V25.4586V25.4571V25.4557V25.4542V25.4527V25.4513V25.4498V25.4483V25.4469V25.4454V25.4439V25.4425V25.441V25.4395V25.4381V25.4366V25.4352V25.4337V25.4322V25.4308V25.4293V25.4279V25.4264V25.4249V25.4235V25.422V25.4206V25.4191V25.4176V25.4162V25.4147V25.4133V25.4118V25.4104V25.4089V25.4074V25.406V25.4045V25.4031V25.4016V25.4002V25.3987V25.3973V25.3958V25.3943V25.3929V25.3914V25.39V25.3885V25.3871V25.3856V25.3842V25.3827V25.3813V25.3798V25.3784V25.3769V25.3755V25.374V25.3726V25.3711V25.3697V25.3682V25.3668V25.3653V25.3639V25.3624V25.361V25.3595V25.3581V25.3566V25.3552V25.3537V25.3523V25.3508V25.3494V25.3479V25.3465V25.345V25.3436V25.3422V25.3407V25.3393V25.3378V25.3364V25.3349V25.3335V25.332V25.3306V25.3291V25.3277V25.3263V25.3248V25.3234V25.3219V25.3205V25.319V25.3176V25.3162V25.3147V25.3133V25.3118V25.3104V25.309V25.3075V25.3061V25.3046V25.3032V25.3018V25.3003V25.2989V25.2974V25.296C122.206 24.6846 122.063 24.2089 121.705 23.9846C121.326 23.7476 120.925 23.9131 120.712 24.0944C120.432 24.3333 119.929 24.5433 119.281 24.6906C118.645 24.8354 117.915 24.9096 117.22 24.9085C116.656 24.9076 116.205 24.7905 115.726 24.6657C115.623 24.6388 115.518 24.6117 115.411 24.5852C115.199 24.533 115.021 24.4923 114.858 24.455C114.258 24.3177 113.864 24.2274 112.756 23.7843C112.568 23.7092 112.389 23.6383 112.218 23.5704C111.567 23.3119 111.02 23.0949 110.469 22.8436C109.855 22.564 109.29 22.3402 108.415 22.0486C108.235 21.9887 108.069 21.9293 107.91 21.8698L107.977 21.774L112.787 14.8841L112.788 14.8833L119.137 5.84062L119.518 5.29833L118.858 5.2324L115.01 4.84757L114.794 4.82596L114.663 4.99895L100.536 23.6219Z" fill="#FFA219" stroke="#FFA219" stroke-width="0.774973"/>
<path d="M100.075 23.7053L99.1132 24.4651L97.9587 25.4371L99.7316 25.7314L102.264 26.2379L104.29 26.9977L106.57 28.0107L108.596 28.7705L110.622 29.7835L112.648 30.5433L114.674 31.0498H116.7L118.219 30.7966L119.486 30.5433L120.499 30.0368L121.512 29.277L122.018 27.5042L121.241 28.1309L120.752 28.5172L119.992 29.0237L119.124 29.4778L118.219 29.6702L116.953 29.7835L115.084 29.6702L113.408 29.277L111.635 28.5172L110.466 27.9385L108.734 26.9977L106.57 25.8219L104.29 24.956L102.011 24.4651L100.745 24.2118L100.075 23.7053Z" fill="#330043" fill-opacity="0.58" stroke="#330043" stroke-opacity="0.58" stroke-width="0.506518"/>
<path d="M79.1254 1.38501V0.997523H78.7379H74.4839H74.0964V1.38501V22.5826V22.97H74.4839H78.7379H79.1254V22.5826V1.38501Z" fill="#FFA219" stroke="#FFA219" stroke-width="0.774973"/>
<path d="M92.9795 1.38501V0.997523H92.5921H88.338H87.9505V1.38501V22.5826V22.97H88.338H92.5921H92.9795V22.5826V1.38501Z" fill="#FFA219" stroke="#FFA219" stroke-width="0.774973"/>
<path d="M82.5656 0.997547H82.1781V1.38503V5.61816V6.00565H82.5656L98.3436 6.00565H98.7311V5.61816V1.38503V0.997547H98.3436L82.5656 0.997547Z" fill="#FFA219" stroke="#FFA219" stroke-width="0.774973"/>
<path d="M102.192 1.7674H101.804V2.15489V4.46387V4.85135H102.192L119.509 4.85135H119.897V4.46387V2.15489V1.7674H119.509L102.192 1.7674Z" fill="#FFA219" stroke="#FFA219" stroke-width="0.774973"/>
<path d="M71.7904 3.27958L73.5632 1.00024V23.4813H79.2946L78.3751 24.5533H71.7904V3.27958Z" fill="#330043" fill-opacity="0.58"/>
<path d="M71.7904 24.5533V3.27958L73.5632 1.00024V23.4813M71.7904 24.5533L73.5632 23.4813M71.7904 24.5533H78.3751L79.2946 23.4813H73.5632" stroke="#330043" stroke-opacity="0.58" stroke-width="0.506518"/>
<path d="M85.6442 6.58008H87.417V23.4811H93.1483L92.2289 24.5531H85.6442V6.58008Z" fill="#330043" fill-opacity="0.58"/>
<path d="M85.6442 24.5531V6.58008H87.417V23.4811M85.6442 24.5531L87.417 23.4811M85.6442 24.5531H92.2289L93.1484 23.4811H87.417" stroke="#330043" stroke-opacity="0.58" stroke-width="0.506518"/>
<path d="M112.39 5.61816H113.585L100.075 23.3203L97.1891 25.4369L112.39 5.61816Z" fill="#330043" fill-opacity="0.58" stroke="#330043" stroke-opacity="0.58" stroke-width="0.506518"/>
<path d="M80.6414 2.34715L81.7958 1.00024V6.38786H87.1835L86.7986 7.54235H80.6414V2.34715Z" fill="#330043" fill-opacity="0.58"/>
<path d="M80.6414 7.54235V2.34715L81.7958 1.00024V6.38786M80.6414 7.54235L81.7958 6.38786M80.6414 7.54235H86.7986L87.1835 6.38786H81.7958" stroke="#330043" stroke-opacity="0.58" stroke-width="0.506518"/>
<path d="M100.652 2.73209L101.422 1.77002V5.50513H113.544L112.775 6.38798H100.652V2.73209Z" fill="#330043" fill-opacity="0.58"/>
<path d="M100.652 6.38798V2.73209L101.422 1.77002V5.50513M100.652 6.38798L101.422 5.50513M100.652 6.38798H112.775L113.544 5.50513H101.422" stroke="#330043" stroke-opacity="0.58" stroke-width="0.506518"/>
<path d="M93.5331 6.3877V7.92702H97.7662L98.9207 6.3877H93.5331Z" fill="#330043" fill-opacity="0.58" stroke="#330043" stroke-opacity="0.58" stroke-width="0.506518"/>
<path d="M32.922 36.7211L33.2143 38.8105L36.0202 38.4179L36.2056 39.7432L33.3998 40.1358L33.7089 42.3447L36.8729 41.902L37.0634 43.2631L32.2278 43.9397L31.0599 35.5938L35.8955 34.9172L36.086 36.2783L32.922 36.7211Z" fill="#D81E5B"/>
<path d="M46.6619 33.8276L47.4867 42.2022L45.807 42.3677L45.2705 36.9206L43.5633 42.5886L42.2915 42.7139L39.4994 37.4889L40.0359 42.936L38.3562 43.1015L37.5314 34.7269L39.4391 34.539L42.7159 40.5036L44.7662 34.0143L46.6619 33.8276Z" fill="#D81E5B"/>
<path d="M53.3547 40.6247L56.1253 40.5131L56.1792 41.8503L51.722 42.0297L51.3835 33.6214L53.0699 33.5535L53.3547 40.6247Z" fill="#D81E5B"/>
<path d="M59.0683 34.7693L59.0889 36.879L61.922 36.8513L61.935 38.1895L59.102 38.2171L59.1237 40.4474L62.3184 40.4162L62.3319 41.7906L57.4494 41.8382L57.3672 33.4114L62.2496 33.3638L62.2631 34.7381L59.0683 34.7693Z" fill="#D81E5B"/>
<path d="M69.5778 33.5388L69.5463 34.9008L67.3044 34.8488L67.141 41.8997L65.4536 41.8606L65.617 34.8097L63.3752 34.7578L63.4068 33.3958L69.5778 33.5388Z" fill="#D81E5B"/>
<path d="M74.6717 42.2737L73.0121 38.8905L72.2178 38.8434L72.024 42.1169L70.3391 42.0172L70.8365 33.6167L73.9897 33.8035C74.6396 33.8419 75.1863 33.9911 75.6298 34.2508C76.0739 34.5025 76.3966 34.8316 76.5979 35.2381C76.8078 35.637 76.8985 36.0771 76.87 36.5585C76.8372 37.1121 76.647 37.6041 76.2995 38.0344C75.9524 38.4567 75.457 38.7333 74.8132 38.8643L76.6213 42.3892L74.6717 42.2737ZM72.2926 37.5797L73.7007 37.6631C74.1581 37.6902 74.5055 37.6021 74.7429 37.3988C74.9809 37.1874 75.1115 36.8852 75.1348 36.492C75.1576 36.1069 75.0629 35.8034 74.8506 35.5815C74.6387 35.3515 74.3041 35.223 73.8468 35.196L72.4387 35.1126L72.2926 37.5797Z" fill="#D81E5B"/>
<path d="M83.0176 41.4155L79.6823 41.085L78.9723 42.626L77.2087 42.4512L81.0511 34.3635L83.0067 34.5573L85.1869 43.2418L83.4113 43.0659L83.0176 41.4155ZM82.6948 40.0267L81.8303 36.4034L80.2714 39.7865L82.6948 40.0267Z" fill="#D81E5B"/>
<path d="M88.6774 43.8493C88.0962 43.7691 87.5845 43.597 87.1422 43.3331C86.7079 43.0703 86.3812 42.7331 86.1622 42.3215C85.9431 41.9099 85.8648 41.4488 85.9272 40.9381L87.7186 41.1855C87.6952 41.5311 87.7773 41.8183 87.9648 42.047C88.1602 42.2769 88.449 42.4182 88.8312 42.4709C89.2213 42.5248 89.5405 42.4756 89.7887 42.3232C90.038 42.1629 90.1836 41.9315 90.2254 41.6289C90.2594 41.3821 90.2118 41.1686 90.0825 40.9885C89.9532 40.8084 89.7792 40.6586 89.5604 40.5391C89.3507 40.4128 89.0544 40.2664 88.6717 40.1C88.1523 39.866 87.7319 39.6498 87.4104 39.4512C87.098 39.2458 86.8398 38.9708 86.6358 38.6262C86.441 38.2748 86.3798 37.8363 86.4523 37.3108C86.5205 36.8172 86.7033 36.4043 87.0006 36.0721C87.298 35.74 87.6828 35.5091 88.1551 35.3796C88.6284 35.2421 89.1517 35.2129 89.725 35.2921C90.5849 35.4108 91.2524 35.718 91.7276 36.2136C92.2118 36.7023 92.4302 37.3248 92.3826 38.0809L90.5434 37.827C90.567 37.5381 90.476 37.2862 90.2704 37.0712C90.0739 36.8494 89.7885 36.7126 89.4143 36.6609C89.0879 36.6159 88.8136 36.6632 88.5914 36.8029C88.3773 36.9437 88.2482 37.1734 88.2042 37.4919C88.1735 37.7148 88.2193 37.9118 88.3417 38.0828C88.4732 38.247 88.6398 38.3918 88.8416 38.517C89.0524 38.6353 89.3487 38.7817 89.7303 38.9561C90.2497 39.1901 90.6696 39.4103 90.99 39.6168C91.3103 39.8233 91.572 40.1029 91.7748 40.4554C91.9777 40.808 92.0434 41.243 91.9719 41.7605C91.9103 42.2064 91.7377 42.6045 91.4541 42.9548C91.1704 43.305 90.7897 43.5649 90.312 43.7342C89.8353 43.8956 89.2905 43.9339 88.6774 43.8493Z" fill="#D81E5B"/>
</svg>
